Coordinates
version=1
nRows=19
nColumns=18
inDegrees=yes

Units are S.I. units (second, meters, Newtons, ...)
If the header above contains a line with 'inDegrees', this indicates whether rotational values are in degrees (yes) or radians (no).

endheader
time	ground_thorax_rot_x	ground_thorax_rot_y	ground_thorax_rot_z	ground_thorax_tx	ground_thorax_ty	ground_thorax_tz	clav_prot	clav_elev	scapula_abduction	scapula_elevation	scapula_upward_rot	scapula_winging	plane_elv	shoulder_elv	axial_rot	elbow_flexion	pro_sup
      4.14000000	     -3.57622122	    -10.30548887	     -7.66117221	     -0.00657093	      0.00624652	     -0.00201796	    -41.11589802	      9.34147244	     -4.14180183	     -2.32068397	     70.84888931	    -11.57846165	     33.52098842	     95.88888946	    -14.66877092	      0.00000000	     34.32000000
      4.15000000	     -3.67572531	    -10.12256505	     -7.65385425	     -0.00663676	      0.00598008	     -0.00225017	    -41.16394732	      9.45525888	     -4.30828814	     -2.25081739	     70.78373064	    -11.63896518	     33.18834641	     95.70181719	    -14.66723161	      0.00000000	     34.32000000
      4.16000000	     -3.62747650	    -10.14624619	     -7.63444402	     -0.00661495	      0.00611992	     -0.00224335	    -41.16802873	      9.44338352	     -4.34000584	     -2.26087947	     70.74860936	    -11.64077607	     33.14507199	     95.67539405	    -14.66674931	      0.00000000	     34.32000000
      4.17000000	     -3.57644908	     -9.79185502	     -7.69788586	     -0.00658041	      0.00596822	     -0.00233335	    -41.50703031	      9.59671151	     -4.97166188	     -2.18571603	     70.72456703	    -11.87108603	     33.12464348	     95.51950024	    -14.79154349	      0.00000000	     34.32000000
      4.18000000	     -3.60182035	     -9.73665012	     -7.62949051	     -0.00655226	      0.00601942	     -0.00241320	    -41.49605173	      9.61145509	     -5.06345753	     -2.18115760	     70.59309112	    -11.87860839	     32.99626444	     95.36251297	    -14.81416841	      0.00000000	     34.32000000
      4.19000000	     -3.49670469	     -9.76178525	     -7.60676018	     -0.00653514	      0.00613443	     -0.00235007	    -41.49012106	      9.58630258	     -5.10746912	     -2.20123134	     70.51698257	    -11.87422307	     32.93287624	     95.30389331	    -14.81585760	      0.00000000	     34.32000000
      4.20000000	     -3.54042774	     -9.77705305	     -7.60567718	     -0.00648908	      0.00602716	     -0.00234962	    -41.50758814	      9.60920169	     -5.27136947	     -2.19453219	     70.35835488	    -11.90093594	     32.76634160	     95.12247453	    -14.84193299	      0.00000000	     34.32000000
      4.21000000	     -3.43280312	     -9.80476617	     -7.56937703	     -0.00653641	      0.00615630	     -0.00230304	    -41.50616678	      9.57667192	     -5.32175710	     -2.21990578	     70.28088625	    -11.89716107	     32.69651263	     95.05930512	    -14.84544613	      0.00000000	     34.32000000
      4.22000000	     -3.56606203	     -9.47759893	     -7.61047323	     -0.00656427	      0.00614045	     -0.00246325	    -41.80932269	      9.43793057	     -5.83891551	     -2.34078438	     70.21295289	    -12.03836665	     32.58417405	     94.63259677	    -15.23954625	      0.00000000	     34.32000000
      4.23000000	     -3.45973844	     -9.50320649	     -7.57931676	     -0.00660217	      0.00629758	     -0.00231042	    -41.80388620	      9.41511763	     -5.88350312	     -2.35910089	     70.13779554	    -12.03431852	     32.51235633	     94.57329332	    -15.24302976	      0.00000000	     34.32000000
      4.24000000	     -3.35378349	     -9.50709335	     -7.56929653	     -0.00657948	      0.00636449	     -0.00215729	    -41.78664849	      9.40099614	     -5.91961640	     -2.37104632	     70.05206809	    -12.02644022	     32.44217212	     94.49648448	    -15.24797722	      0.00000000	     34.32000000
      4.25000000	     -3.47716221	     -9.15528636	     -7.56435968	     -0.00662397	      0.00617711	     -0.00247006	    -41.83682730	      9.33397610	     -6.08876962	     -2.42599740	     69.92014931	    -12.04607472	     32.15355530	     94.14683232	    -15.54143078	      0.00000000	     34.32000000
      4.26000000	     -3.34981068	     -9.13115930	     -7.59291636	     -0.00648348	      0.00620077	     -0.00234245	    -41.79894675	      9.32199137	     -6.09909937	     -2.43516888	     69.82475208	    -12.02737302	     32.12179326	     94.06206472	    -15.54706020	      0.00000000	     34.32000000
      4.27000000	     -3.42475310	     -8.90963928	     -7.53978975	     -0.00652011	      0.00615251	     -0.00259612	    -41.75201323	      9.42588415	     -6.19474742	     -2.36877135	     69.64792492	    -12.03900473	     31.83765878	     93.87492270	    -15.58341175	      0.00000000	     34.32000000
      4.28000000	     -3.43551576	     -8.88918916	     -7.54556764	     -0.00652181	      0.00619799	     -0.00258320	    -41.74282120	      9.51683220	     -6.29021905	     -2.31095342	     69.54451174	    -12.06380560	     31.65266505	     93.75250255	    -15.61306509	      0.00000000	     34.32000000
      4.29000000	     -3.35473268	     -8.91173786	     -7.52184506	     -0.00655478	      0.00638575	     -0.00252673	    -41.73884667	      9.50381848	     -6.32910237	     -2.32191805	     69.48315262	    -12.06191296	     31.58924011	     93.69964385	    -15.61694357	      0.00000000	     34.32000000
      4.30000000	     -3.41114944	     -8.87350903	     -7.49179929	     -0.00658003	      0.00621706	     -0.00261380	    -41.73151187	      9.57909277	     -6.43523218	     -2.27533962	     69.36465640	    -12.08435560	     31.36237858	     93.47790334	    -15.67753836	      0.00000000	     34.32000000
      4.31000000	     -3.30592941	     -8.89256564	     -7.47255722	     -0.00654671	      0.00629759	     -0.00256101	    -41.72382139	      9.55428166	     -6.47364906	     -2.29435243	     69.29181443	    -12.07788979	     31.30450054	     93.41681784	    -15.68162189	      0.00000000	     34.32000000
      4.32000000	     -3.38758694	     -8.76337486	     -7.48101801	     -0.00645118	      0.00615457	     -0.00272493	    -41.77062768	      9.56211417	     -6.68532786	     -2.29918529	     69.12830968	    -12.11604916	     31.07288056	     93.18214505	    -15.75093556	      0.00000000	     34.32000000
